<?xml version="1.0" encoding="utf-8"?>
<!-- Generator: Adobe Illustrator 19.1.0, SVG Export Plug-In . SVG Version: 6.00 Build 0)  -->
<svg version="1.1" id="Layer_1" xmlns="http://www.w3.org/2000/svg" xmlns:xlink="http://www.w3.org/1999/xlink" x="0px" y="0px"
	 viewBox="0 0 25.4 25.4" style="enable-background:new 0 0 25.4 25.4;" xml:space="preserve">
<style type="text/css">
	.st0{fill:#E91E63;}
</style>
<path class="st0" d="M12.7,0c3.8,0,7.6,0,11.4,0c0.3,0,0.6,0.1,0.8,0.2c0.3,0.2,0.4,0.5,0.4,0.9c0,1.4,0,2.8,0,4.2
	c0,6.2,0,12.5,0,18.7c0,0.2,0,0.4-0.1,0.5c-0.1,0.4-0.4,0.7-0.9,0.8c-0.1,0-0.2,0-0.4,0c-7.6,0-15.1,0-22.7,0c-0.3,0-0.6,0-0.9-0.2
	C0.2,24.9,0,24.6,0,24.2c0,0,0-0.1,0-0.1C0,16.5,0,8.9,0,1.3C0,1,0,0.8,0.2,0.5C0.4,0.2,0.8,0,1.2,0c0.1,0,0.1,0,0.2,0
	C5.2,0,8.9,0,12.7,0z M12.7,20.4C12.7,20.4,12.7,20.4,12.7,20.4c1.3,0,2.6,0,3.8,0c0.7,0,1.4,0,2.2,0c0.6,0,1.1-0.6,1.1-1.1
	c0-0.5-0.4-0.9-0.8-1c-0.2,0-0.3-0.1-0.5-0.1c-3.9,0-7.7,0-11.6,0c-0.1,0-0.2,0-0.2,0c-0.5,0-1.1,0.5-1,1.2c0,0.6,0.4,0.9,0.8,1
	c0.1,0,0.3,0,0.5,0C8.9,20.4,10.8,20.4,12.7,20.4z M10.1,12.8c-1.1,0-2.2,0-3.3,0c-0.5,0-1,0.3-1.1,0.8c-0.2,0.5,0.1,1.1,0.5,1.3
	c0.2,0.1,0.5,0.2,0.7,0.2c2.1,0,4.3,0,6.4,0c0.2,0,0.3,0,0.5-0.1c0.7-0.3,0.9-1,0.6-1.6c-0.2-0.4-0.6-0.6-1-0.6
	C12.3,12.8,11.2,12.8,10.1,12.8z M14.4,4.3c-0.3,1.1-0.5,2.2-0.8,3.3c-0.3-1.1-0.5-2.2-0.7-3.3c-0.2,0-0.3,0-0.5,0
	c-0.1,0-0.3,0-0.4,0c0.3,1.7,0.7,3.3,1,4.9c0.3,0,0.8,0,0.9,0c0.3-1.2,0.6-2.4,0.8-3.6c0.2,0.6,0.3,1.2,0.5,1.8
	c0.1,0.6,0.3,1.2,0.4,1.8c0.3,0,0.6,0,0.9,0c0.3-1.6,0.7-3.3,1-4.9c0,0,0,0,0,0c0,0,0,0,0,0c-0.3,0-0.5,0-0.8,0
	c-0.2,1.1-0.4,2.2-0.6,3.4C16,7.1,15.9,6.6,15.8,6c-0.1-0.6-0.3-1.1-0.4-1.7C15.1,4.3,14.8,4.3,14.4,4.3z M7.6,9.3c0-1.7,0-3.3,0-5
	c-0.3,0-0.5,0-0.8,0c0,1.1,0,2.1,0,3.2c0,0,0,0,0,0C6.2,6.5,5.6,5.4,5.1,4.3c-0.3,0-0.6,0-0.9,0c0,1.6,0,3.2,0,4.8c0,0,0,0.1,0,0.1
	c0.1,0,0.3,0,0.4,0c0.1,0,0.3,0,0.4,0c0-0.2,0-0.4,0-0.6c0-0.2,0-0.4,0-0.6c0-0.2,0-0.4,0-0.6c0-0.2,0-0.4,0-0.6c0-0.2,0-0.4,0-0.7
	c0,0.1,0.1,0.1,0.1,0.2C5.5,6.8,5.7,7.3,6,7.9c0.2,0.4,0.4,0.8,0.7,1.2c0.1,0.1,0.1,0.2,0.3,0.2C7.2,9.3,7.4,9.3,7.6,9.3z M8.5,9.2
	c0.3,0,3.1,0,3.3,0c0-0.1,0-0.2,0-0.4c0-0.1,0-0.3,0-0.4c-0.8,0-1.6,0-2.4,0c0-0.5,0-0.9,0-1.4c0.2,0,0.4,0,0.6,0c0.2,0,0.4,0,0.5,0
	c0.2,0,0.4,0,0.6,0c0.2,0,0.3,0,0.5,0c0-0.3,0-0.5,0-0.8c-0.2,0-0.5,0-0.7,0c-0.2,0-0.5,0-0.7,0c-0.2,0-0.5,0-0.7,0
	c0-0.2,0-0.4,0-0.5c0-0.2,0-0.4,0-0.5c0.3,0,0.5,0,0.8,0c0.3,0,0.5,0,0.8,0c0.3,0,0.5,0,0.8,0c0-0.3,0-0.6,0-0.8c-1.1,0-2.1,0-3.2,0
	C8.5,5.9,8.5,7.6,8.5,9.2z M18,7.6C18,7.8,18,8,18,8.1C18.2,8.6,18.5,9,19,9.2c0.6,0.2,1.2,0.2,1.8-0.1C21,9,21.2,8.8,21.3,8.5
	c0.1-0.1,0.1-0.3,0.1-0.4c0.2-0.5,0.1-0.9-0.2-1.3c0-0.1-0.1-0.1-0.1-0.1c-0.3-0.2-0.6-0.4-1-0.5c-0.3-0.1-0.6-0.2-0.8-0.3
	c-0.2-0.1-0.2-0.3-0.2-0.5c0-0.2,0.1-0.3,0.3-0.3c0.3-0.1,0.6-0.1,0.8,0c0.2,0,0.3,0.2,0.3,0.3c0,0.1,0.1,0.2,0.1,0.3
	c0.3,0,0.6,0,0.9-0.1c0-0.1,0-0.2,0-0.2c-0.1-0.6-0.4-0.9-0.9-1.1c-0.4-0.2-0.9-0.2-1.3,0c-0.5,0.1-0.8,0.4-0.9,0.9
	c0,0.2,0,0.3,0,0.5c0,0.5,0.3,0.9,0.7,1.1c0.1,0.1,0.3,0.1,0.5,0.2c0.3,0.1,0.7,0.2,1,0.3c0.4,0.1,0.4,0.6,0.2,0.9
	c-0.2,0.2-0.4,0.3-0.6,0.3c-0.5,0-0.8-0.2-1-0.6c0-0.1-0.1-0.2-0.1-0.3C18.5,7.5,18.3,7.6,18,7.6z"/>
</svg>
